<svg width="50" height="50" viewBox="0 0 50 50" fill="none" xmlns="http://www.w3.org/2000/svg">
<path d="M23.5989 43.469C23.3031 44.2428 23.6905 45.1099 24.4644 45.4057C25.2382 45.7016 26.1053 45.3141 26.4011 44.5403L23.5989 43.469ZM36.5989 9.46436L23.5989 43.469L26.4011 44.5403L39.4011 10.5356L36.5989 9.46436Z" fill="black"/>
<path d="M25.8078 43.469C26.1037 44.2428 25.7162 45.1099 24.9424 45.4057C24.1686 45.7016 23.3015 45.3141 23.0056 44.5403L25.8078 43.469ZM12.8078 9.46436L25.8078 43.469L23.0056 44.5403L10.0056 10.5356L12.8078 9.46436Z" fill="black"/>
<line x1="33.3571" y1="9.06592" x2="41.7638" y2="12.2795" stroke="black" stroke-width="2"/>
<line y1="-1" x2="9" y2="-1" transform="matrix(-0.93408 0.357064 0.357064 0.93408 16.4067 10)" stroke="black" stroke-width="2"/>
<line x1="28.3571" y1="24.0659" x2="36.7638" y2="27.2795" stroke="black" stroke-width="2"/>
<line y1="-1" x2="9" y2="-1" transform="matrix(-0.93408 0.357064 0.357064 0.93408 21.4067 25)" stroke="black" stroke-width="2"/>
</svg>
